# xmcd CD database file
#
# Track frame offsets:
#	150
#	23537
#	49918
#	74139
#	97479
#	120147
#	139346
#	158648
#	176263
#	195756
#	217618
#
# Disc length: 3255 seconds
#
# Revision: 1
# Processed by: cddbd v1.5.2PL0 Copyright (c) Steve Scherf et al.
# Submitted via: CD2WAV32(JP) R3.22
#
DISCID=8d0cb50b
DTITLE=中村中 - 私を抱いて下さい
DYEAR=2007
DGENRE=JPop
TTITLE0=部屋の片隅　-Album version-
TTITLE1=リンゴ売り
TTITLE2=鳥の群れ
TTITLE3=あたしを嘲笑ってヨ
TTITLE4=ＡＭ零時
TTITLE5=真夜中のシンデレラ
TTITLE6=ロック・バンド
TTITLE7=やりきれない日々
TTITLE8=私が欲しいなら
TTITLE9=雨のロマンス
TTITLE10=裸電球 -Album version-
EXTD=
EXTT0=
EXTT1=
EXTT2=
EXTT3=
EXTT4=
EXTT5=
EXTT6=
EXTT7=
EXTT8=
EXTT9=
EXTT10=
PLAYORDER=
